<svg width="120" height="161" xmlns="http://www.w3.org/2000/svg" xmlns:xlink="http://www.w3.org/1999/xlink" xml:space="preserve" overflow="hidden"><g transform="translate(-1904 -89)"><g><g><g><g><path d="M52.805 146.656 52.805 158.857 47.0171 158.857 47.0171 129.357 52.805 129.357 52.805 141.511 70.7321 141.511 70.7321 129.357 76.5171 129.357 76.5171 158.857 70.7174 158.857 70.7174 146.656 52.805 146.656Z" fill="#0B4332" fill-rule="nonzero" fill-opacity="1" transform="matrix(1 0 0 1.00439 1905 90)"/><path d="M31.8865 129.357 31.8865 148.589 13.3841 131.325C12.0242 130.06 10.2276 129.355 8.36915 129.355L4.2952 129.355 8.36915 133.042 8.36915 158.855 14.1541 158.855 14.1541 140.025 34.5828 158.855 37.6715 158.855 37.6715 129.355 31.8865 129.355Z" fill="#0B4332" fill-rule="nonzero" fill-opacity="1" transform="matrix(1 0 0 1.00439 1905 90)"/><path d="M110.882 150.854C108.457 152.733 105.209 153.89 101.312 153.899 94.633 153.913 90.3408 149.848 90.3408 144.066 90.3408 138.284 94.633 134.249 101.341 134.249 105.085 134.249 108.451 135.358 110.861 137.281L113.666 132.726C110.413 130.304 106.135 128.912 101.182 128.912 91.1019 128.912 84.4437 135.157 84.4437 144.066 84.4437 152.975 91.1343 159.3 101.215 159.3 106.569 159.3 110.283 158.055 113.702 155.438L110.879 150.857Z" fill="#0B4332" fill-rule="nonzero" fill-opacity="1" transform="matrix(1 0 0 1.00439 1905 90)"/><path d="M80.4554 49.2709C83.0927 41.1496 91.5267 36.4177 99.8309 38.3972L99.8309 38.3972C99.8309 38.3972 99.8309 38.3972 99.8309 38.3972 96.9016 40.9637 94.7186 44.2765 93.515 47.9817L89.9957 58.8171C87.2934 67.1302 78.6263 71.9357 70.1451 69.8265 73.0036 68.2305 75.1512 65.6109 76.1631 62.4987L80.4583 49.2709Z" fill="#0B4332" fill-rule="nonzero" fill-opacity="1" transform="matrix(1 0 0 1.00439 1905 90)"/><path d="M109.932 92.4678 101.2 77.3431C98.0462 71.8797 91.2818 69.6701 85.5087 72.2189 85.5087 72.2189 85.5087 72.2189 85.5087 72.2189 88.2138 73.6202 89.5325 74.7589 91.1786 77.6115L97.8928 89.2434C100.327 93.4589 105.716 94.9044 109.932 92.4707Z" fill="#0B4332" fill-rule="nonzero" fill-opacity="1" transform="matrix(1 0 0 1.00439 1905 90)"/><path d="M105.401 76.2575C105.672 81.4524 110.106 85.4408 115.298 85.1694 115.026 79.9745 110.593 75.9861 105.401 76.2575Z" fill="#0B4332" fill-rule="nonzero" fill-opacity="1" transform="matrix(1 0 0 1.00439 1905 90)"/><path d="M94.9487 58.6637C103.819 59.4218 111.625 52.8463 112.38 43.9757 103.51 43.2175 95.7039 49.793 94.9487 58.6637Z" fill="#0B4332" fill-rule="nonzero" fill-opacity="1" transform="matrix(1 0 0 1.00439 1905 90)"/><path d="M90.4116 66.7054 90.4116 66.7054C90.4116 66.7054 90.4116 66.7054 90.4116 66.7054 92.922 66.8913 95.3794 67.5107 97.6804 68.5344L108.731 73.455C112.274 75.0332 116.425 73.4402 118 69.8973 118 69.8973 103.442 63.4161 103.442 63.4161 98.8604 61.3747 93.4766 62.7347 90.4116 66.7084Z" fill="#0B4332" fill-rule="nonzero" fill-opacity="1" transform="matrix(1 0 0 1.00439 1905 90)"/><path d="M59.0118 35.9841C52.1029 30.9661 50.209 21.4848 54.6576 14.1983L54.6576 14.1983C54.6576 14.1983 54.6576 14.1983 54.6576 14.1983 56.1945 17.7796 58.6696 20.8771 61.8202 23.1663L71.036 29.8629C78.1071 34.9988 80.001 44.7309 75.3725 52.1442 74.7383 48.9316 72.9122 46.079 70.2631 44.1556L59.0118 35.9841Z" fill="#0B4332" fill-rule="nonzero" fill-opacity="1" transform="matrix(1 0 0 1.00439 1905 90)"/><path d="M109.203 21.299 92.1196 24.9305C85.9482 26.2432 81.7563 31.9927 82.3964 38.2703 82.3964 38.2703 82.3964 38.2703 82.3964 38.2703 84.5647 36.1316 86.0544 35.2289 89.2758 34.5445L102.412 31.7538C107.173 30.7419 110.212 26.0632 109.2 21.3019Z" fill="#0B4332" fill-rule="nonzero" fill-opacity="1" transform="matrix(1 0 0 1.00439 1905 90)"/><path d="M92.3851 20.5998C97.409 21.945 102.574 18.9655 103.92 13.9387 98.8958 12.5935 93.7303 15.573 92.3851 20.5998Z" fill="#0B4332" fill-rule="nonzero" fill-opacity="1" transform="matrix(1 0 0 1.00439 1905 90)"/><path d="M72.4254 25.1045C75.8858 16.9035 72.0449 7.44875 63.8439 3.98545 60.3835 12.1865 64.2244 21.6412 72.4254 25.1045Z" fill="#0B4332" fill-rule="nonzero" fill-opacity="1" transform="matrix(1 0 0 1.00439 1905 90)"/><path d="M78.6706 31.9013 78.6706 31.9013C78.6706 31.9013 78.6706 31.9013 78.6706 31.9013 79.6235 29.5708 80.9716 27.4232 82.656 25.5529L90.7479 16.5642C93.3439 13.6821 93.1108 9.24235 90.2287 6.6493 90.2287 6.6493 79.5644 18.4935 79.5644 18.4935 76.2073 22.2223 75.8386 27.7624 78.6676 31.9013Z" fill="#0B4332" fill-rule="nonzero" fill-opacity="1" transform="matrix(1 0 0 1.00439 1905 90)"/><path d="M39.7512 52.271C32.8453 57.292 23.2401 56.1621 17.6852 49.678L17.6852 49.678C17.6852 49.678 17.6852 49.678 17.6852 49.678 21.5645 49.324 25.2756 47.9286 28.4291 45.6365L37.6449 38.94C44.7161 33.804 54.5543 35.0076 60.1741 41.7012 56.9232 41.3118 53.6457 42.1673 50.9996 44.0936L39.7512 52.271Z" fill="#0B4332" fill-rule="nonzero" fill-opacity="1" transform="matrix(1 0 0 1.00439 1905 90)"/><path d="M41.2941 0 39.468 17.3696C38.8073 23.6442 42.9815 29.4086 49.1499 30.739 49.1499 30.739 49.1499 30.739 49.1499 30.739 47.787 28.0161 47.3858 26.3199 47.731 23.0424L49.1381 9.68485C49.6485 4.84685 46.135 0.5074 41.2941 0Z" fill="#0B4332" fill-rule="nonzero" fill-opacity="1" transform="matrix(1 0 0 1.00439 1905 90)"/><path d="M35.4324 15.7766C38.2645 11.4135 37.0254 5.5814 32.6624 2.7494 29.8304 7.11245 31.0694 12.9446 35.4324 15.7766Z" fill="#0B4332" fill-rule="nonzero" fill-opacity="1" transform="matrix(1 0 0 1.00439 1905 90)"/><path d="M33.5474 36.1522C26.8155 30.326 16.638 31.0576 10.8088 37.7895 17.5407 43.6157 27.7182 42.8841 33.5474 36.1522Z" fill="#0B4332" fill-rule="nonzero" fill-opacity="1" transform="matrix(1 0 0 1.00439 1905 90)"/><path d="M41.9431 32.3143 41.9431 32.3143C41.9431 32.3143 41.9431 32.3143 41.9431 32.3143 40.0226 30.6888 38.3972 28.7418 37.1375 26.5618L31.09 16.0863C29.1519 12.7292 24.8567 11.5787 21.4996 13.5169 21.4996 13.5169 29.4675 27.317 29.4675 27.317 31.975 31.6623 37.1316 33.7244 41.9431 32.3113Z" fill="#0B4332" fill-rule="nonzero" fill-opacity="1" transform="matrix(1 0 0 1.00439 1905 90)"/><path d="M49.2886 75.6232C51.9288 83.7416 47.8873 92.5297 40.0049 95.8071L40.0049 95.8071C40.0049 95.8071 40.0049 95.8071 40.0049 95.8071 40.8663 92.0076 40.6864 88.0457 39.4828 84.3405L35.9635 73.5051C33.2612 65.192 37.4502 56.2093 45.5539 52.9318 44.1792 55.9025 43.9786 59.2832 44.9934 62.3984L49.2945 75.6232Z" fill="#0B4332" fill-rule="nonzero" fill-opacity="1" transform="matrix(1 0 0 1.00439 1905 90)"/><path d="M0.0531 58.0029 16.0096 65.1065C21.7739 67.673 28.5442 65.4841 31.7154 60.0295 31.7154 60.0295 31.7154 60.0295 31.7154 60.0295 28.7035 60.4838 26.9689 60.3393 23.9599 59L11.6909 53.5366C7.2452 51.5571 2.0355 53.5543 0.0531 58.0029Z" fill="#0B4332" fill-rule="nonzero" fill-opacity="1" transform="matrix(1 0 0 1.00439 1905 90)"/><path d="M13.2455 68.4548C9.971 64.4132 4.0415 63.7878 0 67.0623 3.2745 71.1038 9.204 71.7292 13.2455 68.4548Z" fill="#0B4332" fill-rule="nonzero" fill-opacity="1" transform="matrix(1 0 0 1.00439 1905 90)"/><path d="M32.0429 76.5436C24.4201 81.1456 21.9716 91.0517 26.5736 98.6745 34.1964 94.0725 36.6449 84.1664 32.0429 76.5436Z" fill="#0B4332" fill-rule="nonzero" fill-opacity="1" transform="matrix(1 0 0 1.00439 1905 90)"/><path d="M30.9868 67.3721 30.9868 67.3721C30.9868 67.3721 30.9868 67.3721 30.9868 67.3721 28.8451 68.6966 26.4939 69.6406 24.0307 70.1657L12.2012 72.6791C8.4075 73.4845 5.98555 77.2133 6.79385 81.007 6.79385 81.007 22.3816 77.6941 22.3816 77.6941 27.2875 76.6498 30.8452 72.3871 30.9868 67.3721Z" fill="#0B4332" fill-rule="nonzero" fill-opacity="1" transform="matrix(1 0 0 1.00439 1905 90)"/><path d="M74.4462 73.7677C82.9835 73.7677 90.09 80.3255 90.7744 88.8363L90.7744 88.8363C90.7744 88.8363 90.7744 88.8363 90.7744 88.8363 87.4262 86.8421 83.603 85.7919 79.709 85.7919L68.3161 85.7919C59.5752 85.7919 52.3241 79.0334 51.7105 70.3132 54.1118 72.5375 57.2654 73.7736 60.5399 73.7706L74.4462 73.7706Z" fill="#0B4332" fill-rule="nonzero" fill-opacity="1" transform="matrix(1 0 0 1.00439 1905 90)"/><path d="M42.4711 115.15 54.159 102.17C58.3805 97.4827 58.3923 90.3644 54.1856 85.6651 54.1856 85.6651 54.1856 85.6651 54.1856 85.6651 53.687 88.6711 53.0145 90.2759 50.8108 92.7244L41.8222 102.704C38.5653 106.321 38.8574 111.893 42.4741 115.15Z" fill="#0B4332" fill-rule="nonzero" fill-opacity="1" transform="matrix(1 0 0 1.00439 1905 90)"/><path d="M56.4895 105.831C51.6338 107.696 49.2089 113.144 51.0733 118 55.929 116.136 58.3539 110.687 56.4895 105.831Z" fill="#0B4332" fill-rule="nonzero" fill-opacity="1" transform="matrix(1 0 0 1.00439 1905 90)"/><path d="M69.9887 90.4558C72.0095 99.1259 80.6766 104.516 89.3466 102.498 87.3259 93.8277 78.6588 88.438 69.9887 90.4558Z" fill="#0B4332" fill-rule="nonzero" fill-opacity="1" transform="matrix(1 0 0 1.00439 1905 90)"/><path d="M60.9411 88.6268 60.9411 88.6268C60.9411 88.6268 60.9411 88.6268 60.9411 88.6268 61.5399 91.0724 61.711 93.6005 61.4485 96.1051L60.1829 108.135C59.7788 111.991 62.5754 115.445 66.431 115.852 66.431 115.852 68.0978 100.005 68.0978 100.005 68.6229 95.0165 65.664 90.3172 60.9411 88.6298Z" fill="#0B4332" fill-rule="nonzero" fill-opacity="1" transform="matrix(1 0 0 1.00439 1905 90)"/></g></g></g></g></g></svg>